# xmcd CD database file
#
# Track frame offsets:
#	150
#	21629
#	38935
#	54665
#	68776
#	85640
#	99607
#	112055
#	128019
#	141557
#	156489
#	174288
#
# Disc length: 2540 seconds
#
# Revision: 0
# Processed by: cddbd v1.5.1PL2 Copyright (c) Steve Scherf et al.
# Submitted via: CDex 1.51
#
DISCID=ac09ea0c
DTITLE=Snit's Dog And Pony Show - 3 Chords and a Cloud of Dust
DYEAR=2001
DGENRE=Blues
TTITLE0=I Washed My Hands in Muddy Water
TTITLE1=More Than Enough
TTITLE2=Standing at the Crossroads
TTITLE3=A Woman to Love
TTITLE4=Generation Rumble
TTITLE5=Acceptance and Respect
TTITLE6=Let it Rock
TTITLE7=Bad Situation
TTITLE8=Detroit
TTITLE9=I Want You to Love Me
TTITLE10=School Days
TTITLE11=Kingston Pike
EXTD=YEAR: 2001
EXTT0=
EXTT1=
EXTT2=
EXTT3=
EXTT4=
EXTT5=
EXTT6=
EXTT7=
EXTT8=
EXTT9=
EXTT10=
EXTT11=
PLAYORDER=
